<svg xmlns="http://www.w3.org/2000/svg" viewBox="0 0 512 512" role="img" aria-labelledby="title desc">
  <title id="title">Pharos NFT Appraisal Logo</title>
  <desc id="desc">A stylized NFT gem, valuation chart, magnifying glass, and blockchain nodes for an NFT appraisal skill.</desc>
  <defs>
    <linearGradient id="bg" x1="64" y1="76" x2="448" y2="436" gradientUnits="userSpaceOnUse">
      <stop stop-color="#071531"/>
      <stop offset="1" stop-color="#172356"/>
    </linearGradient>
    <linearGradient id="gem" x1="155" y1="136" x2="324" y2="330" gradientUnits="userSpaceOnUse">
      <stop stop-color="#F7FBFF"/>
      <stop offset=".42" stop-color="#8B5CF6"/>
      <stop offset="1" stop-color="#10D6A0"/>
    </linearGradient>
    <linearGradient id="bar" x1="316" y1="198" x2="438" y2="364" gradientUnits="userSpaceOnUse">
      <stop stop-color="#A78BFA"/>
      <stop offset="1" stop-color="#19D99B"/>
    </linearGradient>
    <filter id="shadow" x="-20%" y="-20%" width="140%" height="140%">
      <feDropShadow dx="0" dy="12" stdDeviation="12" flood-color="#020716" flood-opacity=".3"/>
    </filter>
  </defs>
  <rect width="512" height="512" rx="108" fill="url(#bg)"/>
  <g opacity=".65" stroke="#A9B8D8" stroke-width="5" stroke-dasharray="10 12" fill="none">
    <path d="M104 188l95-58 118 44 91-54M109 304l119 71 153-73 45 78"/>
  </g>
  <g fill="#0B1735" stroke="#D6E3F8" stroke-width="5">
    <path d="M95 168l28-16 28 16v32l-28 16-28-16z"/>
    <path d="M210 112l28-16 28 16v32l-28 16-28-16z"/>
    <path d="M362 104l28-16 28 16v32l-28 16-28-16z"/>
    <path d="M74 302l28-16 28 16v32l-28 16-28-16z"/>
    <path d="M375 358l28-16 28 16v32l-28 16-28-16z"/>
  </g>
  <g filter="url(#shadow)">
    <rect x="276" y="166" width="150" height="204" rx="26" fill="#101B3C" stroke="#526083" stroke-width="5"/>
    <path d="M313 321h22v30h-22zM352 281h22v70h-22zM391 229h22v122h-22z" fill="url(#bar)"/>
    <path d="M302 232h77M302 260h43" stroke="#D6E3F8" stroke-width="10" stroke-linecap="round" opacity=".7"/>
    <path d="M307 301l42-38 36 23 42-67" fill="none" stroke="#31E7B0" stroke-width="10" stroke-linecap="round" stroke-linejoin="round"/>
  </g>
  <g filter="url(#shadow)">
    <rect x="107" y="138" width="204" height="204" rx="42" transform="rotate(-12 209 240)" fill="#F8FBFF" stroke="#B8C5DA" stroke-width="7"/>
    <path d="M154 221l72-77 93 77-82 112z" fill="url(#gem)" stroke="#D6E3F8" stroke-width="5" stroke-linejoin="round"/>
    <path d="M154 221h165M226 144l11 189M226 144l-28 77 39 112M226 144l47 77-36 112" fill="none" stroke="#F8FBFF" stroke-width="4" opacity=".75"/>
  </g>
  <g filter="url(#shadow)">
    <circle cx="319" cy="324" r="60" fill="#EFF6FF" stroke="#111A35" stroke-width="14" opacity=".96"/>
    <circle cx="319" cy="324" r="39" fill="#172356" opacity=".82"/>
    <path d="M360 366l62 62" stroke="#EFF6FF" stroke-width="26" stroke-linecap="round"/>
    <path d="M360 366l62 62" stroke="#111A35" stroke-width="14" stroke-linecap="round"/>
  </g>
  <text x="256" y="446" text-anchor="middle" fill="#F8FBFF" font-family="Arial, Helvetica, sans-serif" font-size="34" font-weight="800" letter-spacing="3">NFT APPRAISAL</text>
</svg>

